<svg xmlns="http://www.w3.org/2000/svg" width="256" height="256" viewBox="0 0 256 256" version="1.1">
    <path d="" stroke="none" fill="#080404" fill-rule="evenodd"/>
    <path d="M 87.254 8.403 C 76.597 11.876, 67.939 20.215, 63.950 30.847 C 62.248 35.385, 61.899 38.176, 62.180 45 C 62.790 59.771, 63.719 61.097, 96.311 93.750 C 122.484 119.972, 124.759 122, 128 122 C 131.241 122, 133.516 119.972, 159.689 93.750 C 183.497 69.898, 188.299 64.599, 190.535 59.710 C 199.239 40.681, 191.575 18.785, 173.196 10.170 C 168.213 7.834, 166.249 7.500, 157.500 7.501 C 148.458 7.501, 146.973 7.775, 142 10.353 C 138.975 11.921, 134.588 15.052, 132.250 17.310 L 128 21.416 123.750 17.310 C 116.757 10.554, 109.963 7.700, 100 7.332 C 94.647 7.135, 89.928 7.531, 87.254 8.403 M 90 23.594 C 78.928 28.390, 73.577 42.503, 78.931 52.790 C 79.993 54.830, 91.593 67.196, 104.708 80.269 L 128.554 104.039 152.140 80.269 C 165.113 67.196, 176.223 55.546, 176.829 54.380 C 179.059 50.091, 179.910 43.677, 178.884 38.893 C 176.970 29.970, 167.482 22.072, 158.616 22.022 C 151.292 21.981, 146.989 24.089, 138.836 31.714 C 128.504 41.376, 127.419 41.388, 117.445 31.948 C 113.347 28.069, 108.435 24.244, 106.529 23.448 C 102.082 21.590, 94.472 21.657, 90 23.594 M 19.500 72.896 C 17.300 73.914, 14.286 76.042, 12.803 77.624 C 6.803 84.023, 6.998 81.234, 7.022 160.218 C 7.043 228.441, 7.148 232.725, 8.896 236.500 C 9.914 238.700, 12.042 241.714, 13.624 243.197 C 20.141 249.308, 14.078 249.002, 128.218 248.978 C 227.588 248.957, 232.688 248.869, 236.500 247.104 C 238.700 246.086, 241.714 243.958, 243.197 242.376 C 249.194 235.981, 249 238.735, 249 160 C 249 81.265, 249.194 84.019, 243.197 77.624 C 237.573 71.626, 234.721 71.046, 210.750 71.022 C 190.317 71.001, 188.879 71.121, 187 73 C 184.022 75.978, 184.333 81.330, 187.635 83.927 C 190.103 85.869, 191.548 86, 210.480 86 C 228.789 86, 230.846 86.172, 232.345 87.829 C 233.852 89.494, 234 95.961, 234 160.174 C 234 227.219, 233.910 230.771, 232.171 232.345 C 230.636 233.735, 227.865 234, 214.881 234 L 199.419 234 158.085 177.909 C 132.224 142.817, 115.580 121.105, 113.625 119.913 C 109.640 117.483, 102.403 117.418, 98.822 119.779 C 97.349 120.751, 92.239 126.035, 87.466 131.523 C 82.693 137.010, 78.223 142.097, 77.533 142.826 C 76.508 143.908, 74.768 142.107, 68.050 133.007 C 59.115 120.905, 55.564 118.009, 49.651 118.004 C 43.538 117.998, 40.072 120.400, 31 130.931 L 22.500 140.799 22.223 115.149 C 21.952 89.996, 21.988 89.466, 24.084 87.750 C 25.960 86.215, 28.643 86, 45.976 86 C 64.447 86, 65.901 85.865, 68.365 83.927 C 71.667 81.330, 71.978 75.978, 69 73 C 67.121 71.121, 65.683 71.001, 45.250 71.022 C 26.216 71.041, 23.001 71.275, 19.500 72.896 M 177.221 123.122 C 165.109 129.142, 159.819 144.884, 165.901 156.806 C 174.078 172.835, 194.741 175.684, 206.927 162.464 C 217.656 150.824, 215.117 132.913, 201.548 124.524 C 197.394 121.956, 195.514 121.462, 189.078 121.248 C 183.009 121.046, 180.648 121.419, 177.221 123.122 M 35.676 148.428 L 22 163.905 22 197.297 C 22 228.378, 22.127 230.805, 23.829 232.345 C 25.478 233.837, 30.443 234, 74.329 234 C 101.098 234, 123 233.735, 123 233.411 C 123 232.940, 52.429 136.555, 50.013 133.726 C 49.649 133.300, 43.197 139.916, 35.676 148.428 M 95.945 144.611 C 86.189 155.653, 85.748 156.344, 87.089 158.487 C 87.865 159.727, 100.648 177.224, 115.494 197.371 L 142.489 234 161.244 234 C 171.560 234, 180 233.752, 180 233.449 C 180 232.996, 120.460 151.828, 109.430 137.245 L 106.212 132.990 95.945 144.611 M 182.750 137.080 C 179.846 138.771, 177.753 143.869, 178.446 147.561 C 179.268 151.945, 184.099 156, 188.500 156 C 192.505 156, 197.484 152.192, 198.435 148.402 C 199.335 144.817, 197.388 139.484, 194.485 137.582 C 191.773 135.805, 185.406 135.533, 182.750 137.080"
          stroke="none"
          fill="#040404"
          fill-rule="evenodd"
    />
</svg>