<svg xmlns="http://www.w3.org/2000/svg" width="256" height="256" viewBox="0 0 256 256" version="1.1">
    <path d="" stroke="none" fill="#080404" fill-rule="evenodd"/>
    <path d="M 101.927 1.977 C 96.777 4.700, 91.291 11.209, 89.944 16.193 C 88.341 22.122, 89.363 30.237, 92.353 35.340 C 94.794 39.505, 112.055 56.856, 121.112 64.250 C 123.639 66.312, 126.788 68, 128.110 68 C 132.163 68, 158.880 43.423, 163.662 35.297 C 170.748 23.254, 165.453 6.827, 152.782 1.549 C 145.588 -1.448, 135.636 0.175, 130.264 5.222 L 128 7.349 125.736 5.222 C 120.122 -0.052, 108.708 -1.607, 101.927 1.977 M 107.997 11.381 C 101.133 13.622, 98.126 22.249, 101.634 29.640 C 103.133 32.800, 123.404 53.018, 127.091 55.031 C 128.316 55.700, 131.446 53.278, 140.705 44.495 C 153.144 32.697, 156 28.636, 156 22.747 C 156 15.358, 148.395 9.166, 141.684 11.091 C 140.094 11.547, 136.609 13.963, 133.939 16.460 C 131.270 18.957, 128.597 21, 128 21 C 127.403 21, 124.730 18.957, 122.061 16.460 C 116.336 11.105, 112.778 9.820, 107.997 11.381 M 49.571 67.571 C 48.199 68.944, 48 73.862, 48 106.390 C 48 146.449, 48.360 149.858, 53.443 157.909 C 57.952 165.053, 67.252 171.839, 74.750 173.457 C 77.734 174.102, 78 174.474, 78 178.020 C 78 180.144, 77.616 182.119, 77.147 182.409 C 76.679 182.699, 72.645 181.071, 68.184 178.792 C 58.144 173.662, 51.050 172.990, 47.906 176.869 C 44.938 180.532, 42.751 189.570, 42.810 197.925 C 42.877 207.293, 46.088 218.442, 49.199 220.107 C 52.808 222.038, 61.317 220.497, 68.705 216.574 C 72.406 214.608, 76.012 213, 76.717 213 C 77.636 213, 77.996 214.918, 77.986 219.750 L 77.973 226.500 64.486 237.263 C 52.973 246.452, 51 248.435, 51 250.813 C 51 252.346, 51.540 254.140, 52.200 254.800 C 53.080 255.680, 61.340 256, 83.129 256 C 108.821 256, 113.070 255.787, 114.429 254.429 C 116.321 252.536, 116.448 249.939, 114.750 247.828 C 114.063 246.973, 107.987 241.889, 101.250 236.530 L 89 226.786 89 220.059 C 89 216.360, 89.269 213.064, 89.597 212.736 C 89.926 212.407, 92.360 213.471, 95.006 215.099 C 101.624 219.171, 108.006 221.182, 113.131 220.812 C 116.986 220.533, 117.685 220.079, 119.644 216.575 C 124.533 207.835, 125.088 192.655, 120.926 181.533 C 119.310 177.212, 118.307 175.954, 115.778 175.072 C 110.838 173.350, 100.963 176.042, 93.981 181.014 C 89.891 183.926, 89 183.518, 89 178.735 C 89 174.492, 89.028 174.459, 94.250 172.607 C 104 169.149, 109.797 163.977, 115.106 154 L 117.500 149.500 117.793 109.154 C 118.008 79.531, 117.776 68.435, 116.920 67.404 C 115.964 66.252, 109.966 66, 83.449 66 C 55.413 66, 50.935 66.208, 49.571 67.571 M 139.080 67.404 C 138.224 68.435, 137.992 79.531, 138.207 109.154 C 138.499 149.401, 138.506 149.511, 140.871 154 C 145.181 162.182, 149.634 166.679, 157.152 170.440 C 161.066 172.398, 164.883 174, 165.634 174 C 166.586 174, 167 175.363, 167 178.500 C 167 183.528, 166.151 183.956, 162.019 181.014 C 155.037 176.042, 145.162 173.350, 140.222 175.072 C 131.871 177.983, 129.434 204.276, 136.375 216.575 C 138.573 220.470, 138.637 220.500, 144.674 220.495 C 149.755 220.491, 151.941 219.873, 157.928 216.745 C 161.871 214.685, 165.526 213, 166.049 213 C 166.572 213, 167 216.102, 167 219.893 L 167 226.786 155.234 236.230 C 148.763 241.425, 142.688 246.455, 141.734 247.409 C 139.577 249.566, 139.512 252.369, 141.571 254.429 C 142.930 255.787, 147.179 256, 172.871 256 C 194.660 256, 202.920 255.680, 203.800 254.800 C 204.460 254.140, 205 252.346, 205 250.813 C 205 248.435, 203.027 246.452, 191.514 237.263 L 178.027 226.500 178.014 219.750 C 178.004 214.918, 178.364 213, 179.283 213 C 179.988 213, 183.594 214.608, 187.295 216.574 C 194.683 220.497, 203.192 222.038, 206.801 220.107 C 209.912 218.442, 213.123 207.293, 213.190 197.925 C 213.249 189.570, 211.062 180.532, 208.094 176.869 C 204.950 172.990, 197.856 173.662, 187.816 178.792 C 183.355 181.071, 179.321 182.699, 178.853 182.409 C 178.384 182.119, 178 180.144, 178 178.020 C 178 174.474, 178.266 174.102, 181.250 173.457 C 188.748 171.839, 198.048 165.053, 202.557 157.909 C 207.145 150.642, 209.450 137.578, 206.965 132.934 C 205.690 130.553, 200.801 130.342, 198.571 132.571 C 197.551 133.592, 196.997 135.958, 196.990 139.321 C 196.957 157.173, 177.863 169.093, 162.145 161.074 C 157.060 158.480, 153.079 154.307, 150.626 149 C 148.761 144.964, 148.509 142.208, 148.177 122.250 L 147.807 100 176.249 100 C 202.532 100, 204.816 99.861, 206.345 98.171 C 208.728 95.539, 208.797 69.940, 206.429 67.571 C 205.065 66.208, 200.587 66, 172.551 66 C 146.034 66, 140.036 66.252, 139.080 67.404 M 59 82.482 L 59 89 83.548 89 L 108.095 89 107.798 82.750 L 107.500 76.500 83.250 76.232 L 59 75.964 59 82.482 M 148.667 76.667 C 148.300 77.033, 148 79.958, 148 83.167 L 148 89 172.500 89 L 197 89 197 82.500 L 197 76 173.167 76 C 160.058 76, 149.033 76.300, 148.667 76.667 M 59.022 122.250 C 59.042 142.467, 59.230 144.911, 61.081 149 C 65.386 158.510, 72.720 163.326, 83 163.393 C 93.112 163.459, 101.052 158.352, 105.374 149 C 107.239 144.964, 107.491 142.208, 107.823 122.250 L 108.193 100 83.596 100 L 59 100 59.022 122.250 M 198.440 110.451 C 196.537 113.356, 197.266 116.537, 200.194 118.104 C 205.067 120.712, 210.182 114.068, 206.464 109.960 C 204.013 107.252, 200.391 107.474, 198.440 110.451 M 54.688 187.219 C 52.487 196.440, 53.491 210, 56.375 210 C 57.053 210, 59.833 208.891, 62.554 207.536 L 67.500 205.072 67.349 197.786 L 67.199 190.500 63.349 188.358 C 56.997 184.824, 55.312 184.603, 54.688 187.219 M 107 186.243 C 105.625 186.852, 103.073 188.187, 101.329 189.208 C 98.430 190.906, 98.235 191.332, 99.051 194.179 C 99.553 195.929, 99.575 198.937, 99.101 201.048 L 98.257 204.803 103.393 207.401 C 106.218 208.831, 109.064 210, 109.717 210 C 111.321 210, 112.989 203.628, 112.989 197.500 C 112.989 192.176, 111.371 184.955, 110.203 185.068 C 109.816 185.105, 108.375 185.634, 107 186.243 M 144.053 188.750 C 142.005 196.125, 143.461 210, 146.283 210 C 146.936 210, 149.807 208.818, 152.663 207.373 C 157.558 204.896, 157.798 204.598, 156.865 202.144 C 156.321 200.713, 156.164 197.444, 156.516 194.881 L 157.157 190.220 151.641 187.610 C 148.606 186.174, 145.892 185, 145.609 185 C 145.326 185, 144.625 186.688, 144.053 188.750 M 194.011 187.750 L 188.664 190.500 188.565 197.718 L 188.466 204.936 193.118 207.468 C 199.908 211.163, 200.672 210.898, 202.025 204.381 C 203.359 197.955, 202.053 185, 200.071 185 C 199.679 185, 196.952 186.238, 194.011 187.750 M 80.185 192.684 C 79.462 192.973, 78.438 194.348, 77.909 195.740 C 75.682 201.597, 83.847 205.912, 87.443 200.777 C 89.501 197.840, 89.407 196.407, 87 194 C 85.048 192.048, 82.840 191.622, 80.185 192.684 M 168.655 193.829 C 165.201 197.645, 167.663 203, 172.871 203 C 176.312 203, 178 201.340, 178 197.955 C 178 192.817, 171.977 190.158, 168.655 193.829 M 76.979 241.017 L 70.745 246 82.873 246 C 89.543 246, 95 245.841, 95 245.648 C 95 245.454, 92.348 243.211, 89.106 240.665 L 83.212 236.034 76.979 241.017 M 167.500 240.116 C 164.750 242.341, 162.072 244.575, 161.550 245.081 C 160.971 245.641, 165.408 246, 172.927 246 L 185.255 246 179 241 C 175.560 238.250, 172.690 236.016, 172.623 236.036 C 172.555 236.055, 170.250 237.892, 167.500 240.116"
          stroke="none"
          fill="#040404"
          fill-rule="evenodd"
    />
</svg>