<svg xmlns="http://www.w3.org/2000/svg" width="256" height="256" viewBox="0 0 256 256" version="1.1">
    <path d="" stroke="none" fill="#080404" fill-rule="evenodd"/>
    <path d="M 55.500 17.416 C 34.399 22.301, 17.383 35.081, 8.022 53.074 C -4.820 77.758, -2.424 106.416, 14.328 128.507 C 16.828 131.803, 42.649 158.238, 71.709 187.250 C 121.087 236.549, 124.770 240, 128 240 C 131.230 240, 134.913 236.549, 184.291 187.250 C 213.351 158.238, 239.186 131.800, 241.702 128.500 C 247.378 121.057, 252.537 110.508, 254.117 103.115 C 254.777 100.027, 255.695 97.072, 256.158 96.550 C 257.150 95.430, 257.316 73.351, 256.325 74.342 C 255.954 74.713, 254.847 71.854, 253.865 67.988 C 248.161 45.529, 230.446 26.921, 207.500 19.287 C 200.481 16.952, 197.906 16.626, 186.500 16.626 C 175.094 16.626, 172.519 16.952, 165.500 19.287 C 161.100 20.751, 154.604 23.648, 151.065 25.724 C 144.749 29.430, 132.874 40.099, 129.641 44.973 L 128 47.445 126.359 44.973 C 123.126 40.099, 111.251 29.430, 104.935 25.724 C 90.937 17.511, 70.167 14.020, 55.500 17.416 M 56 33.530 C 31.401 40.335, 15.645 61.074, 15.796 86.450 C 15.900 104.049, 20.021 112.152, 38.307 130.708 L 51.322 143.917 55.911 140.105 C 58.435 138.008, 61.555 135.738, 62.844 135.061 C 65.188 133.829, 65.188 133.829, 63.207 131.665 C 58.297 126.300, 56.514 120.927, 56.516 111.500 C 56.518 103.685, 56.868 101.842, 59.173 97.500 C 64.892 86.726, 75.561 80.023, 87 80.015 C 95.062 80.010, 99.254 81.141, 105.237 84.935 C 113.268 90.028, 120 102.035, 120 111.266 C 120 116.814, 117.690 124.259, 114.497 129.005 L 111.173 133.944 114.423 135.952 C 116.211 137.057, 119.997 140.418, 122.837 143.421 L 128 148.880 133.163 143.421 C 136.003 140.418, 139.789 137.057, 141.577 135.952 L 144.827 133.944 141.503 129.005 C 138.310 124.259, 136 116.814, 136 111.266 C 136 106.284, 139.129 97.493, 142.610 92.698 C 151.384 80.609, 167.946 76.415, 181.500 82.850 C 193.638 88.613, 200.590 100.285, 199.755 113.500 C 199.306 120.601, 196.011 129.086, 192.604 131.913 C 191.256 133.033, 191.819 133.765, 196.916 137.517 C 200.140 139.891, 203.110 142.369, 203.515 143.025 C 204.529 144.665, 227.086 122.235, 232.129 114.572 C 242.415 98.941, 243.099 77.332, 233.860 59.914 C 228.201 49.247, 216.532 39.283, 204.500 34.844 C 199.544 33.015, 196.412 32.630, 186.500 32.630 C 176.588 32.630, 173.456 33.015, 168.500 34.844 C 155.025 39.815, 144.273 49.620, 137.703 62.929 C 134.476 69.466, 132.854 71.679, 130.747 72.420 C 125.503 74.264, 122.921 72.295, 118.297 62.929 C 111.700 49.567, 100.805 39.659, 87.500 34.921 C 79.538 32.086, 63.740 31.388, 56 33.530 M 0.378 86 C 0.378 92.325, 0.541 94.912, 0.739 91.750 C 0.937 88.587, 0.937 83.412, 0.739 80.250 C 0.541 77.087, 0.378 79.675, 0.378 86 M 82.684 96.416 C 75.507 99.037, 72 103.988, 72 111.500 C 72 117.129, 73.939 121.089, 78.340 124.446 C 85.868 130.188, 97.076 127.818, 101.729 119.500 C 108.882 106.715, 96.286 91.449, 82.684 96.416 M 163.914 95.925 C 157.071 98.081, 151.983 104.984, 152.016 112.066 C 152.059 120.865, 161.099 128.695, 169.909 127.562 C 174.935 126.915, 180.290 123.273, 182.501 118.998 C 184.789 114.573, 184.430 106.934, 181.747 102.952 C 177.891 97.230, 169.839 94.057, 163.914 95.925 M 74.500 146.815 C 71.200 148.428, 67.273 151.056, 65.774 152.655 L 63.047 155.560 91.573 184.030 L 120.099 212.500 119.800 190 C 119.503 167.701, 119.475 167.449, 116.720 161.839 C 113.644 155.576, 108.334 150.248, 101.795 146.864 C 98.624 145.223, 95.277 144.542, 89 144.261 C 81.216 143.912, 79.995 144.127, 74.500 146.815 M 158.365 145.089 C 153.528 146.491, 145.914 152.041, 142.309 156.794 C 136.865 163.970, 136 168.786, 136 191.925 L 136 212.487 164.476 184.024 L 192.953 155.560 190.226 152.655 C 188.727 151.056, 184.800 148.456, 181.500 146.875 C 176.557 144.508, 174.267 144.017, 168.500 144.091 C 164.650 144.140, 160.089 144.589, 158.365 145.089"
          stroke="none"
          fill="#040404"
          fill-rule="evenodd"
    />
</svg>