<svg xmlns="http://www.w3.org/2000/svg" width="256" height="256" viewBox="0 0 256 256" version="1.1">
    <path d="" stroke="none" fill="#080404" fill-rule="evenodd"/>
    <path d="M 93.372 1.162 C 88.605 2.774, 81.037 8.962, 77.467 14.166 C 75.707 16.732, 73.467 21.501, 72.489 24.764 L 70.712 30.697 62.265 34.886 L 53.818 39.076 48.659 37.168 C 41.076 34.365, 34.734 33.707, 28.223 35.049 C 14.170 37.945, 5.633 47.151, 5.550 59.500 C 5.504 66.206, 8.971 74.745, 13.445 78.948 L 15.933 81.286 10.717 84.393 C 6.868 86.685, 4.894 88.722, 3.188 92.159 C 0.148 98.284, 0.655 100.587, 8.327 115.499 C 15.384 129.217, 18.323 132, 25.752 132 C 29.617 132, 38.737 127.686, 94.554 99.453 C 139.681 76.628, 159.634 66.035, 161.357 63.988 C 162.707 62.383, 164.131 59.185, 164.520 56.881 C 165.169 53.038, 164.662 51.575, 158.364 39.126 C 154.222 30.938, 150.455 24.809, 148.864 23.669 C 144.743 20.716, 138.145 20.400, 132.523 22.887 C 129.895 24.049, 127.618 25, 127.461 25 C 127.304 25, 126.878 23.237, 126.514 21.082 C 125.552 15.387, 120.156 7.037, 115.187 3.555 C 111.473 0.953, 109.875 0.503, 103.687 0.318 C 99.734 0.200, 95.092 0.580, 93.372 1.162 M 182.804 4.985 C 176.648 8.329, 173.645 13.215, 173.171 20.657 C 172.543 30.523, 176.404 37.477, 190.434 51.749 C 199.046 60.509, 202.090 63.005, 204.163 63.003 C 209.749 62.997, 228.428 44.130, 233.535 33.335 C 238.866 22.065, 235.513 9.847, 225.798 5.144 C 220.084 2.378, 214.474 2.425, 208.823 5.286 L 204.308 7.572 201.643 5.583 C 197.715 2.650, 187.686 2.332, 182.804 4.985 M 155.086 8.397 C 154.404 9.218, 153.994 10.927, 154.173 12.195 C 154.428 13.995, 155.134 14.500, 157.391 14.500 C 160.956 14.500, 163.001 11.816, 161.393 9.250 C 159.957 6.960, 156.650 6.512, 155.086 8.397 M 98.994 10.945 C 89.353 13.838, 82 23.650, 82 33.622 C 82 36.726, 85.726 46.028, 86.949 45.977 C 87.252 45.965, 93.800 42.687, 101.500 38.693 L 115.500 31.432 115.807 26.652 C 116.443 16.762, 107.487 8.395, 98.994 10.945 M 186.825 15.038 C 185.904 15.576, 184.624 17.609, 183.981 19.556 C 182.939 22.716, 183.104 23.691, 185.513 28.615 C 187.066 31.789, 191.675 37.763, 196.362 42.677 L 204.512 51.221 212.841 42.545 C 221.828 33.184, 226.681 24.801, 225.455 20.758 C 222.980 12.598, 213.350 11.556, 209.485 19.030 C 208.311 21.300, 207.257 22, 205.014 22 C 202.044 22, 201.614 21.682, 197.917 16.750 C 196.310 14.607, 195.043 14.007, 192.177 14.030 C 190.155 14.047, 187.746 14.501, 186.825 15.038 M 119.500 41.600 C 109.600 46.717, 101.055 51.074, 100.512 51.281 C 99.313 51.739, 100.338 54.109, 107.620 67.732 L 113.090 77.965 132.967 68.017 C 146.379 61.304, 153.046 57.431, 153.466 56.107 C 153.877 54.811, 152.202 50.382, 148.536 43.072 C 143.414 32.859, 142.771 32.012, 140.242 32.149 C 138.734 32.230, 129.400 36.484, 119.500 41.600 M 66.742 44.570 L 61.983 47.047 64.115 51.273 C 65.287 53.598, 66.371 55.643, 66.523 55.817 C 66.676 55.992, 69.068 54.986, 71.838 53.582 L 76.876 51.029 74.352 46.515 C 72.964 44.032, 71.755 42.021, 71.665 42.047 C 71.574 42.072, 69.359 43.208, 66.742 44.570 M 27.500 46.161 C 20.451 48.802, 16 54.218, 16 60.152 C 16 63.812, 19.876 70.668, 23.515 73.444 L 26.929 76.048 42.037 68.481 L 57.145 60.915 54.204 55.707 C 52.041 51.877, 50.063 49.882, 46.726 48.164 C 41.488 45.466, 31.993 44.477, 27.500 46.161 M 75.750 63.560 C 68.737 67.110, 63 70.188, 63 70.400 C 63 71.186, 76.177 96, 76.595 96 C 78.052 96, 103.080 82.773, 102.819 82.140 C 101.237 78.296, 89.631 57.012, 89.139 57.052 C 88.788 57.081, 82.763 60.009, 75.750 63.560 M 228.301 62.772 C 220.040 69.264, 226.722 82.227, 236.641 78.953 C 243.496 76.691, 245.235 69.081, 240.077 63.923 C 236.672 60.518, 231.779 60.040, 228.301 62.772 M 160.500 69.426 C 153.966 73.358, 150.306 81.989, 151.996 89.483 C 152.727 92.724, 152.641 92.844, 149.125 93.486 C 147.131 93.850, 144.538 94.767, 143.362 95.523 C 141.496 96.725, 140.735 96.643, 137.362 94.883 C 134.510 93.395, 132.146 92.971, 128.322 93.260 C 116.897 94.126, 109.946 104.858, 113.393 116.309 L 114.804 121 91.152 121.022 C 70.439 121.041, 67.002 121.270, 63.491 122.865 C 59.188 124.820, 53.452 130.682, 51.933 134.676 C 51.399 136.080, 51 159.288, 51 188.908 L 51 240.685 53.252 244.944 C 54.491 247.287, 57.460 250.620, 59.851 252.352 L 64.197 255.500 126.512 255.500 L 188.828 255.500 193.164 252.456 C 195.549 250.781, 198.625 247.406, 200 244.956 L 202.500 240.500 202.500 188.500 L 202.500 136.500 199.687 131.715 C 197.760 128.435, 195.348 126.077, 192.025 124.222 L 187.176 121.514 195.976 112.418 C 212.755 95.074, 215.868 83.753, 206.724 73.338 C 201.084 66.915, 192.912 65.221, 185.586 68.956 C 181.777 70.898, 181.720 70.898, 177.914 68.956 C 172.530 66.210, 165.531 66.398, 160.500 69.426 M 32.753 85.279 C 21.813 90.942, 12.762 96.248, 12.458 97.178 C 12.150 98.124, 14.334 103.688, 17.464 109.928 C 22.349 119.669, 23.323 121, 25.562 121 C 28.646 121, 66 102.345, 66 100.805 C 66 99.826, 53.163 74.958, 52.694 75.029 C 52.587 75.046, 43.614 79.658, 32.753 85.279 M 164.773 79.750 C 162.039 82.864, 161.782 85.725, 163.832 90.223 C 166.026 95.034, 175.910 107.056, 179.730 109.558 C 182.198 111.176, 182.313 111.122, 187.661 105.850 C 199.228 94.446, 203.085 85.921, 199.018 80.750 C 195.707 76.540, 191.480 76.976, 186.887 82 C 182.892 86.371, 180.799 86.932, 178.500 84.250 C 173.562 78.489, 172.870 78, 169.655 78 C 167.721 78, 165.662 78.738, 164.773 79.750 M 125 106 C 122.409 108.591, 122.493 111.547, 125.298 116.500 L 127.564 120.500 141 120.500 L 154.436 120.500 156.726 116.500 C 162.098 107.118, 152.874 99.054, 146.432 107.500 C 144.517 110.011, 142.982 111, 141 111 C 139.018 111, 137.483 110.011, 135.568 107.500 C 132.441 103.400, 128.202 102.798, 125 106 M 234.169 105.750 C 233.673 106.713, 232.518 109.795, 231.603 112.599 C 230.034 117.409, 229.600 117.845, 223.970 120.275 C 220.426 121.804, 218 123.468, 218 124.370 C 218 125.207, 220.765 127.374, 224.158 129.195 C 229.965 132.311, 230.436 132.842, 232.408 138.487 C 235.345 146.891, 237.211 146.882, 240.018 138.447 C 242.188 131.925, 242.352 131.734, 247.867 129.296 C 253.534 126.790, 255.298 125.291, 254.361 123.775 C 254.082 123.324, 251.229 121.630, 248.019 120.010 C 242.384 117.165, 242.110 116.840, 240.011 110.532 C 237.816 103.938, 235.908 102.375, 234.169 105.750 M 168.095 117.692 C 166.610 120.951, 166.905 121.192, 171.910 120.813 L 176.028 120.500 172.646 117.813 L 169.264 115.125 168.095 117.692 M 66.117 133.631 C 61.130 137.124, 61 138.516, 61 188.500 C 61 239.220, 61.084 240.041, 66.619 243.672 C 68.954 245.204, 71.963 245.555, 85.203 245.838 L 101 246.176 101 189.088 L 101 132 84.723 132 C 71.292 132, 68.038 132.285, 66.117 133.631 M 112 189 L 112 246 127 246 L 142 246 142 189 L 142 132 127 132 L 112 132 112 189 M 152.242 188.750 L 152.500 245.500 168.104 245.500 C 185.555 245.500, 187.888 244.864, 190.482 239.396 C 191.859 236.495, 192.020 229.948, 191.778 186.958 L 191.500 137.835 188.234 134.917 L 184.968 132 168.476 132 L 151.983 132 152.242 188.750 M 70.557 144.223 C 68.412 147.285, 68.607 151.607, 71 154 C 73.407 156.407, 74.840 156.501, 77.777 154.443 C 80.479 152.551, 80.871 146.013, 78.429 143.571 C 76.173 141.316, 72.372 141.630, 70.557 144.223 M 22.201 147.685 C 21.685 148.683, 20.728 151.160, 20.074 153.189 C 19.096 156.223, 18.095 157.180, 14.442 158.575 C 11.999 159.508, 10 160.891, 10 161.649 C 10 162.406, 12.017 164.006, 14.483 165.204 C 18.300 167.059, 19.203 168.096, 20.563 172.191 C 21.442 174.836, 22.754 177, 23.480 177 C 24.205 177, 25.588 174.806, 26.552 172.125 C 28.015 168.057, 29.025 166.901, 32.653 165.138 C 35.044 163.976, 37 162.382, 37 161.596 C 37 160.809, 35.021 159.410, 32.603 158.486 C 28.730 157.007, 28.059 156.284, 26.978 152.422 C 25.461 147.002, 23.540 145.097, 22.201 147.685 M 70.557 165.223 C 69.601 166.587, 69 169.591, 69 173 C 69 176.409, 69.601 179.413, 70.557 180.777 C 72.555 183.630, 77.502 183.800, 78.965 181.066 C 80.407 178.371, 80.283 165.683, 78.800 164.200 C 76.811 162.211, 72.272 162.774, 70.557 165.223"
          stroke="none"
          fill="#040404"
          fill-rule="evenodd"
    />
</svg>