<svg xmlns="http://www.w3.org/2000/svg" width="256" height="256" viewBox="0 0 256 256" version="1.1">
    <path d="" stroke="none" fill="#080404" fill-rule="evenodd"/>
    <path d="M 225.500 1.840 C 223.850 2.914, 215.756 10.589, 207.513 18.896 L 192.525 34 165.954 34 L 139.382 34 133.691 37.427 L 128 40.854 122.262 37.399 L 116.524 33.943 70.184 34.222 L 23.845 34.500 20.409 38.250 C 17.893 40.996, 16.165 42, 13.954 42 C 9.203 42, 4.225 44.583, 2.026 48.190 C 0.041 51.445, 0.007 52.994, 0.004 141.368 L -0 231.235 3.882 235.118 L 7.765 239 57.132 239.045 L 106.500 239.091 109 244.294 C 110.669 247.766, 112.942 250.495, 115.836 252.498 C 119.752 255.209, 120.931 255.500, 128 255.500 C 135.069 255.500, 136.248 255.209, 140.164 252.498 C 143.058 250.495, 145.331 247.766, 147 244.294 L 149.500 239.091 198.921 239.045 L 248.343 239 252.671 234.482 L 257 229.965 257 139.816 C 257 90.234, 256.702 49.965, 256.337 50.330 C 255.972 50.694, 254.827 49.600, 253.792 47.898 C 252.687 46.081, 250.258 44.155, 247.907 43.232 L 243.905 41.659 248.838 36.580 C 254.928 30.309, 256 28.264, 256 22.921 C 256 18.969, 255.458 18.160, 247.157 9.724 C 238.750 1.180, 238.072 0.716, 233.407 0.313 C 229.709 -0.007, 227.761 0.370, 225.500 1.840 M 227.473 12.028 L 224.572 15.057 232.758 23.242 L 240.943 31.428 243.972 28.527 C 245.637 26.931, 247 24.910, 247 24.036 C 247 22.003, 233.952 9, 231.912 9 C 231.066 9, 229.069 10.363, 227.473 12.028 M 215.221 24.264 L 213.041 26.585 221.320 34.821 L 229.598 43.056 231.779 40.736 L 233.959 38.415 225.680 30.179 L 217.402 21.944 215.221 24.264 M 187.706 51.794 L 169.932 69.588 172.500 72 L 175.067 74.412 193.007 56.493 L 210.948 38.573 208.799 36.287 C 207.618 35.029, 206.388 34, 206.065 34 C 205.743 34, 197.481 42.007, 187.706 51.794 M 27.230 44.170 C 25.464 45.936, 25.435 210.035, 27.200 211.800 C 28.096 212.696, 39.363 213, 71.732 213 C 107.987 213, 115.651 213.245, 118.654 214.500 C 120.629 215.325, 122.414 216, 122.622 216 C 122.830 216, 123 178.868, 123 133.485 L 123 50.971 119.578 47.235 L 116.155 43.500 72.307 43.220 C 38.638 43.005, 28.174 43.226, 27.230 44.170 M 140.418 43.969 C 139.274 44.432, 137.136 46.238, 135.668 47.982 L 133 51.153 133 133.577 C 133 178.910, 133.170 216, 133.378 216 C 133.586 216, 135.371 215.325, 137.346 214.500 C 140.349 213.245, 148.013 213, 184.268 213 C 216.637 213, 227.904 212.696, 228.800 211.800 C 229.713 210.887, 230 192.044, 230 133.099 L 230 55.598 207.750 77.641 L 185.500 99.684 173.500 102.961 C 155.948 107.754, 154.679 107.835, 151.469 104.373 C 148.261 100.913, 148.354 99.630, 153.056 82.500 L 156.350 70.500 169.850 56.750 L 183.350 43 162.925 43.063 C 151.691 43.098, 141.563 43.506, 140.418 43.969 M 199.500 63 L 181.533 80.988 184.033 83.488 L 186.533 85.988 204.500 68 L 222.467 50.012 219.967 47.512 L 217.467 45.012 199.500 63 M 0.479 141 C 0.479 190.775, 0.601 211.138, 0.750 186.250 C 0.899 161.363, 0.899 120.638, 0.750 95.750 C 0.601 70.863, 0.479 91.225, 0.479 141 M 9.667 52.667 C 9.300 53.033, 9 92.543, 9 140.467 C 9 206.904, 9.285 227.885, 10.200 228.800 C 11.102 229.702, 24.010 230, 62.143 230 L 112.887 230 114.443 232.223 C 115.299 233.445, 116.016 235.357, 116.035 236.473 C 116.127 241.720, 122.121 246.987, 128 246.987 C 133.879 246.987, 139.873 241.720, 139.965 236.473 C 139.984 235.357, 140.701 233.445, 141.557 232.223 L 143.113 230 193.934 230 C 235.547 230, 244.959 229.754, 245.883 228.641 C 246.706 227.650, 246.942 203.628, 246.756 139.891 L 246.500 52.500 242.750 52.190 L 239 51.879 239 132.954 L 239 214.029 235.578 217.765 L 232.156 221.500 186.828 222 C 153.306 222.370, 140.934 222.824, 139.328 223.744 C 136.073 225.607, 133 229.957, 133 232.701 C 133 236.749, 131.214 239, 128 239 C 124.786 239, 123 236.749, 123 232.701 C 123 229.957, 119.927 225.607, 116.672 223.744 C 115.066 222.824, 102.694 222.370, 69.172 222 L 23.844 221.500 20.422 217.765 L 17 214.029 17 133.015 L 17 52 13.667 52 C 11.833 52, 10.033 52.300, 9.667 52.667 M 50.086 56.717 C 44.420 58.718, 37.793 65.356, 35.521 71.307 C 32.904 78.159, 33.762 89.568, 37.489 97.500 C 41.592 106.229, 54.045 118.273, 64.653 123.773 C 69.137 126.098, 73.767 128, 74.943 128 C 79.777 128, 94.830 118.383, 102.598 110.332 C 112.407 100.164, 117.330 86.429, 115.022 75.665 C 111.247 58.064, 91.660 49.422, 78.144 59.394 L 74.840 61.831 71.302 59.430 C 64.612 54.890, 57.744 54.012, 50.086 56.717 M 54.791 64.999 C 43.781 68.276, 39.979 80.988, 46.157 93.865 C 49.134 100.072, 58.923 109.689, 67.419 114.753 C 74.199 118.794, 74.399 118.845, 77.419 117.294 C 88.100 111.806, 98.978 101.883, 103.040 93.921 C 105.775 88.560, 106.786 78.313, 105.005 74.011 C 103.395 70.126, 98.919 66.348, 94.469 65.119 C 89.367 63.710, 84.685 65.381, 80.703 70.033 C 76.318 75.156, 73.109 75.320, 69.513 70.605 C 65.960 65.947, 59.662 63.549, 54.791 64.999 M 163.189 81.140 C 160.618 89.454, 158.917 96.250, 159.308 96.641 C 159.767 97.100, 174.690 93.216, 176.742 92.103 C 177.568 91.655, 175.681 89.145, 171.106 84.605 L 164.228 77.780 163.189 81.140 M 142.125 115.902 C 141.369 116.381, 140.750 118, 140.750 119.500 C 140.750 121, 141.369 122.619, 142.125 123.098 C 144.371 124.521, 219.364 124.236, 220.800 122.800 C 222.343 121.257, 222.343 117.743, 220.800 116.200 C 219.364 114.764, 144.371 114.479, 142.125 115.902 M 35.750 141.080 C 33.325 142.492, 33.445 147.633, 35.934 148.965 C 37.168 149.625, 51.296 150, 74.934 150 C 110.667 150, 112.072 149.928, 114 148 C 115.100 146.900, 116 145.550, 116 145 C 116 144.450, 115.100 143.100, 114 142 C 112.070 140.070, 110.688 140.001, 74.750 140.030 C 51.315 140.050, 36.851 140.439, 35.750 141.080 M 142 142 C 140.900 143.100, 140 144.450, 140 145 C 140 145.550, 140.900 146.900, 142 148 C 143.928 149.928, 145.333 150, 181.066 150 C 204.704 150, 218.832 149.625, 220.066 148.965 C 221.302 148.303, 222 146.873, 222 145 C 222 143.127, 221.302 141.697, 220.066 141.035 C 218.832 140.375, 204.704 140, 181.066 140 C 145.333 140, 143.928 140.072, 142 142 M 35.200 167.200 C 33.588 168.812, 33.679 172.489, 35.367 173.889 C 36.346 174.702, 47.718 174.950, 75.502 174.762 C 114.058 174.501, 114.276 174.488, 115.061 172.365 C 115.575 170.975, 115.334 169.494, 114.368 168.115 C 112.904 166.024, 112.449 166, 74.643 166 C 46.232 166, 36.091 166.309, 35.200 167.200 M 141.632 168.115 C 140.666 169.494, 140.425 170.975, 140.939 172.365 C 141.724 174.488, 141.942 174.501, 180.498 174.762 C 208.282 174.950, 219.654 174.702, 220.633 173.889 C 222.321 172.489, 222.412 168.812, 220.800 167.200 C 219.909 166.309, 209.768 166, 181.357 166 C 143.551 166, 143.096 166.024, 141.632 168.115 M 35.214 193.186 C 33.659 194.741, 33.652 198.252, 35.200 199.800 C 36.079 200.679, 44.328 201, 66.078 201 C 98.454 201, 98.474 200.996, 97.822 195.310 L 97.500 192.500 66.964 192.236 C 44.051 192.038, 36.125 192.275, 35.214 193.186 M 141.063 194.250 C 140.486 195.738, 140.622 197.177, 141.467 198.500 C 142.690 200.416, 143.987 200.511, 172.501 200.765 C 203.800 201.044, 205 200.889, 205 196.578 C 205 192.107, 204.234 192, 172.268 192 L 141.936 192 141.063 194.250"
          stroke="none"
          fill="#040404"
          fill-rule="evenodd"
    />
</svg>