<svg xmlns="http://www.w3.org/2000/svg" width="256" height="256" viewBox="0 0 256 256" version="1.1">
    <path d="" stroke="none" fill="#080404" fill-rule="evenodd"/>
    <path d="M 67 36.582 L 8.500 73.013 8.500 84.256 L 8.500 95.500 12.250 95.810 L 16 96.121 16 119.074 C 16 134.545, 16.372 142.623, 17.142 143.856 C 18.020 145.261, 17.540 153.454, 15.070 179.230 C 13.303 197.680, 12.001 214.288, 12.178 216.138 C 12.462 219.099, 12.948 219.611, 16.250 220.426 C 19.994 221.351, 20 221.362, 20 226.640 L 20 231.928 10.250 232.214 L 0.500 232.500 0.500 244 L 0.500 255.500 127.393 255.754 C 220.338 255.940, 254.649 255.706, 255.643 254.881 C 256.633 254.059, 257 250.817, 257 242.878 C 257 236.895, 256.663 232.053, 256.250 232.118 C 255.838 232.184, 251.113 232.184, 245.750 232.118 L 236 232 236 226.676 C 236 221.356, 236.002 221.352, 239.750 220.426 C 243.052 219.611, 243.538 219.099, 243.822 216.138 C 243.999 214.288, 242.697 197.680, 240.930 179.230 C 238.460 153.454, 237.980 145.261, 238.858 143.856 C 239.628 142.623, 240 134.545, 240 119.074 L 240 96.121 243.750 95.810 L 247.500 95.500 247.753 85 C 247.892 79.225, 247.667 74.015, 247.253 73.421 C 245.602 71.057, 129.799 0.004, 127.712 0.076 C 126.496 0.118, 99.175 16.546, 67 36.582 M 78.316 39.867 C 51.265 56.734, 28.803 70.864, 28.400 71.267 C 27.997 71.670, 37.589 72, 49.717 72 C 70.926 72, 71.787 71.924, 72.290 70 C 72.738 68.288, 73.653 68, 78.656 68.001 L 84.500 68.003 84.500 58.251 L 84.500 48.500 94 48.189 C 104.522 47.844, 108.910 48.771, 114.403 52.499 C 117.865 54.848, 118.273 54.910, 120.997 53.502 C 124.741 51.565, 131.290 51.581, 135.069 53.536 C 137.877 54.988, 138.216 54.938, 141.270 52.633 C 146.097 48.990, 151.445 47.843, 162 48.189 L 171.500 48.500 171.500 58.251 L 171.500 68.003 177.344 68.001 C 182.347 68, 183.262 68.288, 183.710 70 C 184.213 71.924, 185.074 72, 206.317 72 C 219.208 72, 228.005 71.631, 227.450 71.113 C 226.461 70.190, 127.837 8.924, 127.622 9.100 C 127.555 9.155, 105.367 23, 78.316 39.867 M 92.006 58.113 C 92.016 62.465, 93.963 67.617, 96.498 69.999 C 98.476 71.856, 99 72.014, 99 70.751 C 99 68.407, 103.946 62.926, 107.356 61.492 L 110.311 60.250 107.655 58.510 C 106.151 57.524, 102.181 56.543, 98.500 56.248 C 92.169 55.740, 92 55.788, 92.006 58.113 M 151.376 57.086 C 149.657 57.584, 147.733 58.617, 147.099 59.381 C 146.180 60.488, 146.435 60.892, 148.362 61.376 C 151.205 62.090, 157 68.350, 157 70.709 C 157 72.039, 157.472 71.905, 159.502 69.999 C 162.006 67.646, 163.984 62.474, 163.994 58.250 C 163.999 56.219, 163.538 56.009, 159.250 56.090 C 156.637 56.140, 153.094 56.588, 151.376 57.086 M 125.228 61.230 C 123.979 61.832, 122.679 63.489, 122.340 64.913 C 121.286 69.339, 119.977 70.252, 115.672 69.563 C 108.293 68.384, 103.917 74.900, 109 79.500 C 110.100 80.495, 111 82.520, 111 84 C 111 85.480, 110.100 87.505, 109 88.500 C 103.917 93.100, 108.293 99.616, 115.672 98.437 C 119.975 97.748, 121.287 98.662, 122.338 103.079 C 122.676 104.497, 124.088 106.175, 125.476 106.807 C 128.859 108.348, 132.839 106.535, 133.662 103.079 C 134.713 98.662, 136.025 97.748, 140.328 98.437 C 147.707 99.616, 152.083 93.100, 147 88.500 C 145.900 87.505, 145 85.480, 145 84 C 145 82.520, 145.900 80.495, 147 79.500 C 152.083 74.900, 147.707 68.384, 140.328 69.563 C 136.025 70.252, 134.713 69.338, 133.662 64.921 C 133.192 62.948, 129.089 59.605, 127.703 60.068 C 127.591 60.105, 126.478 60.628, 125.228 61.230 M 119.400 75.400 C 116.400 78.400, 116 79.415, 116 84.032 C 116 88.736, 116.360 89.604, 119.571 92.632 C 122.657 95.542, 123.831 96, 128.203 96 C 132.711 96, 133.632 95.610, 136.632 92.429 C 139.536 89.349, 140 88.165, 140 83.829 C 140 79.443, 139.565 78.365, 136.600 75.400 C 133.605 72.405, 132.580 72, 128 72 C 123.420 72, 122.395 72.405, 119.400 75.400 M 80 78.257 C 80 85.478, 85.526 93.218, 91.956 95.004 C 97.415 96.521, 97.999 96.303, 98.006 92.750 C 98.010 90.963, 98.693 88.196, 99.524 86.601 C 100.355 85.007, 100.915 83.639, 100.768 83.561 C 100.621 83.483, 97.732 81.750, 94.349 79.709 C 89.913 77.034, 87.056 76, 84.099 76 C 80.511 76, 80 76.281, 80 78.257 M 162.098 79.493 C 159.127 81.386, 156.288 83.071, 155.788 83.237 C 155.289 83.404, 155.579 84.881, 156.434 86.520 C 157.288 88.159, 157.990 90.963, 157.994 92.750 C 158.001 96.303, 158.585 96.521, 164.044 95.004 C 170.474 93.218, 176 85.478, 176 78.257 C 176 76.264, 175.502 76.003, 171.750 76.026 C 168.649 76.044, 166.040 76.981, 162.098 79.493 M 16 84 L 16 88 44.607 88 C 70.282 88, 73.152 87.838, 72.607 86.418 C 72.273 85.548, 72 83.748, 72 82.418 L 72 80 44 80 L 16 80 16 84 M 125.571 81.571 C 124.707 82.436, 124 83.529, 124 84 C 124 84.471, 124.707 85.564, 125.571 86.429 C 126.436 87.293, 127.529 88, 128 88 C 129.111 88, 132 85.111, 132 84 C 132 83.529, 131.293 82.436, 130.429 81.571 C 129.564 80.707, 128.471 80, 128 80 C 127.529 80, 126.436 80.707, 125.571 81.571 M 184 82.418 C 184 83.748, 183.727 85.548, 183.393 86.418 C 182.848 87.838, 185.718 88, 211.393 88 L 240 88 240 84 L 240 80 212 80 L 184 80 184 82.418 M 24 113.696 L 24 131.392 27.500 128 C 32.644 123.014, 35.944 117.850, 38.504 110.781 C 40.680 104.770, 40.922 104.500, 44.139 104.500 C 47.072 104.500, 47.541 104.854, 47.820 107.283 C 48.310 111.556, 45.379 119.100, 40.509 126.098 C 38.084 129.582, 36.246 132.580, 36.425 132.759 C 37.070 133.403, 45.605 129.587, 50.500 126.467 C 55.903 123.022, 61.428 117.928, 65.373 112.755 C 67.655 109.762, 74 97.848, 74 96.556 C 74 96.250, 62.750 96, 49 96 L 24 96 24 113.696 M 182 96.378 C 182 96.586, 182.718 98.475, 183.597 100.577 C 187.685 110.363, 196.326 120.569, 205.500 126.450 C 210.380 129.577, 218.925 133.408, 219.575 132.759 C 219.754 132.580, 217.916 129.582, 215.491 126.098 C 210.621 119.100, 207.690 111.556, 208.180 107.283 C 208.459 104.854, 208.928 104.500, 211.861 104.500 C 215.078 104.500, 215.320 104.770, 217.496 110.781 C 220.056 117.850, 223.356 123.014, 228.500 128 L 232 131.392 232 113.696 L 232 96 207 96 C 193.250 96, 182 96.170, 182 96.378 M 78.004 108.724 C 74.707 115.379, 71.994 119.034, 65.640 125.387 L 57.500 133.526 62.700 163.013 C 65.560 179.231, 67.923 193.910, 67.950 195.634 C 68.048 201.768, 57.553 208.360, 50.507 206.591 C 48.330 206.045, 48 206.292, 48 208.472 C 48 209.900, 47.137 211.522, 46 212.232 C 44.234 213.335, 44 214.564, 44 222.741 L 44 232 128 232 L 212 232 212 222.741 C 212 214.564, 211.766 213.335, 210 212.232 C 208.892 211.540, 208 209.900, 208 208.554 C 208 206.352, 207.684 206.177, 204.608 206.676 C 197.242 207.872, 187.962 201.684, 188.041 195.631 C 188.064 193.909, 190.426 179.231, 193.291 163.013 L 198.500 133.526 190.360 125.387 C 184.006 119.034, 181.293 115.378, 177.996 108.724 L 173.772 100.200 169.636 102.078 C 167.013 103.269, 163.123 103.976, 159 104.010 C 155.062 104.042, 151.774 104.614, 150.658 105.459 C 149.645 106.227, 147.051 107.153, 144.895 107.518 C 142.503 107.922, 140.564 108.946, 139.923 110.144 C 135.864 117.727, 120.136 117.727, 116.077 110.144 C 115.436 108.946, 113.497 107.922, 111.105 107.518 C 108.949 107.153, 106.355 106.227, 105.342 105.459 C 104.226 104.614, 100.938 104.042, 97 104.010 C 92.877 103.976, 88.987 103.269, 86.364 102.078 L 82.228 100.200 78.004 108.724 M 46.133 138.898 C 44.204 140.118, 47.097 195.812, 49.157 197.118 C 51.203 198.415, 55.395 198.163, 57.511 196.616 C 59.351 195.270, 59.265 194.440, 54.428 166.941 C 51.692 151.382, 49.014 138.512, 48.477 138.342 C 47.939 138.172, 46.885 138.422, 46.133 138.898 M 206.526 139.250 C 206.301 139.938, 203.972 152.813, 201.352 167.863 C 196.716 194.490, 196.639 195.263, 198.485 196.613 C 200.604 198.162, 204.796 198.416, 206.843 197.118 C 208.903 195.812, 211.796 140.119, 209.867 138.897 C 207.963 137.690, 207.006 137.792, 206.526 139.250 M 31.250 143.269 C 28.264 143.865, 26.998 144.621, 26.995 145.809 C 26.992 146.739, 25.644 161.450, 24 178.500 C 22.356 195.550, 21.008 210.063, 21.005 210.750 C 20.991 214.186, 37.283 210.033, 38.743 206.229 C 39.365 204.606, 37.091 152.877, 36.114 146.461 L 35.500 142.421 31.250 143.269 M 219.658 147.882 C 218.582 158.466, 216.669 204.696, 217.245 206.196 C 218.119 208.474, 226.470 212, 230.989 212 C 233.195 212, 235.006 211.662, 235.014 211.250 C 235.040 209.897, 228.787 144.505, 228.613 144.305 C 228.519 144.197, 226.595 143.694, 224.336 143.187 L 220.228 142.264 219.658 147.882 M 103 145.314 C 98.147 146.852, 90.725 154.556, 89.222 159.616 C 84.133 176.753, 93.568 193.600, 113.661 203.253 C 125.751 209.062, 130.249 209.062, 142.339 203.253 C 159.018 195.240, 168.013 183.128, 167.990 168.712 C 167.961 150.028, 150.305 138.651, 132.935 146.123 L 128 148.246 123.065 146.123 C 117.610 143.777, 108.951 143.427, 103 145.314 M 107.315 153.071 C 99.523 155.401, 95.133 163.858, 97.057 172.830 C 99.086 182.293, 105.335 189.231, 117.277 195.282 C 125.525 199.460, 130.475 199.460, 138.723 195.282 C 150.745 189.191, 156.992 182.206, 158.959 172.656 C 160.304 166.127, 159.119 161.750, 154.802 157.296 C 148.991 151.301, 141.169 150.965, 131.877 156.313 L 128.201 158.429 122.851 155.768 C 116.496 152.608, 111.665 151.770, 107.315 153.071 M 30.750 220.162 C 28.212 221.089, 28 221.584, 28 226.583 L 28 232 32 232 L 36 232 36 225.500 C 36 218.554, 35.776 218.327, 30.750 220.162 M 220 225.500 L 220 232 224 232 L 228 232 228 226.598 C 228 221.438, 227.859 221.146, 224.851 220.098 C 223.119 219.494, 221.319 219, 220.851 219 C 220.383 219, 220 221.925, 220 225.500 M 0.378 244 C 0.378 250.325, 0.541 252.912, 0.739 249.750 C 0.937 246.588, 0.937 241.412, 0.739 238.250 C 0.541 235.088, 0.378 237.675, 0.378 244 M 8 244 L 8 248 128 248 L 248 248 248 244 L 248 240 128 240 L 8 240 8 244"
          stroke="none"
          fill="#040404"
          fill-rule="evenodd"
    />
</svg>