<svg xmlns="http://www.w3.org/2000/svg" width="256" height="256" viewBox="0 0 256 256" version="1.1">
    <path d="" stroke="none" fill="#080404" fill-rule="evenodd"/>
    <path d="M 108.215 12.207 C 103.534 13.778, 96.524 20.287, 94.084 25.327 C 91.341 30.992, 91.252 40.613, 93.893 45.790 C 94.934 47.830, 99.456 54.220, 103.943 59.988 C 111.822 70.120, 112.021 70.506, 109.800 71.351 C 102.175 74.251, 99.833 75.588, 96.646 78.858 C 92.767 82.839, 90 88.505, 90 92.468 C 90 94.898, 89.757 95, 83.950 95 C 77.653 95, 74.089 96.297, 68.142 100.751 C 64.636 103.378, 60.027 111.878, 60.010 115.750 C 60.001 117.765, 59.505 118.001, 55.250 118.006 C 52.638 118.009, 48.765 118.493, 46.645 119.081 C 41.788 120.430, 34.262 127.265, 31.871 132.500 C 29.480 137.734, 29.447 146.492, 31.800 151.108 C 34.988 157.361, 82.488 217.292, 89.326 223.688 C 97.777 231.594, 107.035 237.048, 119 241.171 C 128.115 244.312, 129.127 244.446, 144 244.472 C 157.517 244.496, 160.455 244.200, 166.965 242.156 C 195.046 233.338, 215.261 212.910, 223.230 185.299 C 225.092 178.848, 225.478 175.081, 225.462 163.500 C 225.431 139.301, 220.817 128.331, 198.970 100.500 C 191.198 90.600, 184.601 81.932, 184.308 81.238 C 184.016 80.544, 188.794 73.019, 194.926 64.515 C 201.057 56.011, 206.948 47.129, 208.015 44.776 C 215.040 29.299, 202.292 10.958, 184.554 11.022 C 173.660 11.061, 169.295 14.163, 158.299 29.674 C 154.683 34.774, 151.354 38.719, 150.901 38.439 C 150.447 38.158, 146.409 33.193, 141.926 27.405 C 131.537 13.989, 128.062 11.593, 118.590 11.313 C 114.691 11.198, 110.022 11.600, 108.215 12.207 M 113 21.157 C 105.634 23.254, 100.185 31.677, 101.605 38.774 C 101.989 40.695, 115.459 58.808, 138.107 87.860 C 163.566 120.519, 174 134.633, 174 136.416 C 174 139.281, 170.912 141.424, 168.081 140.526 C 167.067 140.204, 156.322 127.199, 144.203 111.627 C 128.337 91.238, 121.301 82.953, 119.068 82.028 C 110.392 78.435, 99.390 86.061, 99.595 95.526 C 99.704 100.558, 97.795 97.771, 124.699 132.199 C 143.792 156.632, 145.716 159.884, 142.800 162.800 C 139.300 166.300, 137.567 164.629, 116.289 137.258 C 104.855 122.550, 94.270 109.327, 92.767 107.873 C 88.887 104.120, 84.044 103.445, 78.524 105.886 C 72.920 108.365, 70.009 112.860, 70.004 119.042 C 70 123.436, 70.708 124.494, 91.861 151.708 C 103.884 167.176, 113.950 180.433, 114.229 181.166 C 114.509 181.900, 114.350 183.541, 113.877 184.814 C 113.181 186.688, 112.401 187.068, 109.778 186.814 C 106.840 186.529, 104.653 184.080, 86.285 160.500 C 61.887 129.178, 60.723 127.998, 54.265 128.007 C 45.864 128.018, 40.018 133.824, 40.007 142.168 C 40 146.749, 40.462 147.427, 64.876 178.702 C 97.646 220.681, 102.440 225.187, 121.071 231.524 C 148.200 240.751, 177.676 233.189, 197.332 211.959 C 217.470 190.208, 221.973 156.751, 208.272 130.676 C 204.224 122.971, 128.378 24.912, 124.638 22.548 C 121.501 20.565, 116.977 20.024, 113 21.157 M 179.500 21.517 C 177.300 22.316, 175.432 22.977, 175.349 22.985 C 174.694 23.050, 157.969 47.366, 158.201 47.917 C 159.021 49.871, 176.594 71.895, 177.187 71.712 C 177.565 71.595, 182.737 64.750, 188.680 56.500 C 199.383 41.643, 199.485 41.446, 199.493 35.823 C 199.498 31.606, 198.959 29.421, 197.395 27.323 C 193.083 21.539, 185.878 19.201, 179.500 21.517"
          stroke="none"
          fill="#040404"
          fill-rule="evenodd"
    />
</svg>