<svg xmlns="http://www.w3.org/2000/svg" width="256" height="256" viewBox="0 0 256 256" version="1.1">
    <path d="M 164.500 1.671 C 156.336 3.548, 155.293 4.435, 120.250 39.346 C 100.862 58.660, 85 73.943, 85 73.309 C 85 72.674, 86.800 64.660, 89 55.500 C 93.895 35.117, 94.006 31.332, 89.942 23.200 C 84.805 12.920, 76.759 7.875, 65.500 7.875 C 54.947 7.875, 46.696 12.558, 41.495 21.500 C 40.215 23.700, 38.032 30.265, 36.642 36.088 C 31.473 57.757, 23.975 78.064, 13.092 99.866 C 3.040 120.003, -0.014 131.798, 0.022 150.338 C 0.071 175.796, 9.511 198.571, 27.463 216.545 C 62.454 251.578, 117.443 254.182, 155.815 222.622 C 159.492 219.598, 181.007 198.534, 203.627 175.812 C 242.011 137.255, 244.870 134.141, 246.503 129.113 C 248.609 122.625, 248.096 115.069, 245.158 109.309 C 243.062 105.202, 235.851 98, 233.833 98 C 233.194 98, 235.602 94.962, 239.184 91.250 C 242.766 87.537, 246.477 82.987, 247.432 81.137 C 249.834 76.485, 250.542 68.009, 248.992 62.473 C 247.339 56.567, 240.364 48.762, 234.614 46.384 L 230.240 44.575 229.751 38.492 C 228.621 24.404, 218.423 15.032, 204.200 15.010 C 200.652 15.004, 196.684 15.629, 195.114 16.441 C 192.356 17.867, 192.294 17.830, 188.914 12.765 C 183.758 5.038, 172.367 -0.138, 164.500 1.671 M 118.011 63.500 C 92.585 88.869, 71.632 109, 70.654 109 C 68.075 109, 63.337 106.319, 62.621 104.455 C 61.448 101.397, 62.003 98.421, 69.632 66.876 C 74.919 45.015, 77.066 34.401, 76.589 32.497 C 76.209 30.983, 74.605 28.451, 73.026 26.872 C 69.007 22.853, 62.366 22.800, 57.975 26.750 C 55.352 29.110, 54.433 31.416, 51.502 43 C 45.717 65.867, 38.857 84.349, 28.458 105.085 C 18.882 124.177, 16.047 134.252, 16.017 149.292 C 15.945 185.874, 39.749 216.600, 75.500 226.074 C 86.548 229.002, 103.378 229.012, 114.500 226.098 C 125.265 223.277, 135.517 218.092, 144.259 211.046 C 148.241 207.836, 169.400 187.261, 191.278 165.323 C 235.429 121.050, 234.957 121.668, 229.510 115.195 C 227.290 112.556, 226.107 112, 222.713 112 C 218.699 112, 218.107 112.494, 197.052 133.445 C 185.198 145.239, 174.263 155.353, 172.750 155.920 C 169.365 157.188, 165.807 155.991, 163.601 152.841 C 159.964 147.648, 160.030 147.564, 198 109.500 C 236.580 70.824, 235.938 71.649, 232.547 65.091 C 230.775 61.664, 226.036 59.527, 222.269 60.457 C 220.449 60.907, 208.518 72.082, 187.450 93.071 C 165.273 115.163, 154.736 125, 153.247 125 C 146.880 125, 142.740 119.456, 145.012 113.972 C 145.701 112.307, 160.943 96.510, 178.883 78.869 C 196.822 61.227, 212.047 45.827, 212.715 44.647 C 216.153 38.570, 211.526 31, 204.374 31 C 200.741 31, 199.238 32.352, 166 65.500 C 133.632 97.781, 131.180 100, 127.878 100 C 123.295 100, 120 96.643, 120 91.976 C 120 88.866, 122.345 86.228, 147.947 60.540 C 163.318 45.118, 176.365 31.241, 176.940 29.702 C 177.726 27.603, 177.635 26.063, 176.578 23.533 C 174.888 19.489, 172.411 18, 167.373 18 C 163.750 18, 161.952 19.657, 118.011 63.500 M 219.835 182.033 C 218.919 182.567, 216.479 186.041, 214.412 189.752 C 209.033 199.409, 201.153 206.738, 190.611 211.889 C 184.375 214.935, 181.625 216.857, 180.946 218.643 C 178.910 223.996, 182.682 229.400, 188.453 229.400 C 193.158 229.400, 205.334 223.094, 212.774 216.804 C 222.486 208.594, 232 194.581, 232 188.488 C 232 183.103, 224.668 179.212, 219.835 182.033 M 244.319 196.489 C 243.149 197.308, 240.284 201.471, 237.952 205.739 C 235.019 211.108, 231.060 216.149, 225.106 222.094 C 217.993 229.198, 214.852 231.502, 207 235.377 C 194.161 241.714, 191.621 245.159, 195.601 250.841 C 199.366 256.217, 206.120 255.058, 220.386 246.588 C 237.201 236.605, 256 213.389, 256 202.606 C 256 196.595, 249.229 193.050, 244.319 196.489"
          stroke="none"
          fill="#040404"
          fill-rule="evenodd"
    />
</svg>