<svg xmlns="http://www.w3.org/2000/svg" width="32" height="32" viewBox="0 0 256 256" version="1.1">
    <path d="" stroke="none" fill="#080404" fill-rule="evenodd"/>
    <path d="M 105.555 1.614 C 73.892 7.330, 45.094 25.092, 25.714 50.860 C 13.344 67.308, 5.017 86.437, 1.546 106.381 C -0.435 117.762, -0.435 138.238, 1.546 149.619 C 9.809 197.099, 43.870 235.983, 89.829 250.404 C 107.860 256.062, 131.272 257.648, 149.619 254.454 C 188.758 247.643, 222.814 222.908, 241.534 187.698 C 246.654 178.067, 252.412 161.392, 254.032 151.500 C 254.663 147.650, 255.589 143.719, 256.090 142.764 C 257.155 140.732, 257.343 111.323, 256.284 112.383 C 255.890 112.776, 254.979 109.614, 254.260 105.354 C 250.040 80.368, 237.416 56.413, 218.501 37.499 C 199.291 18.288, 176.016 6.140, 149.619 1.546 C 138.575 -0.377, 116.390 -0.342, 105.555 1.614 M 97.557 77.223 C 96.200 79.160, 96 85.672, 96 128 C 96 170.328, 96.200 176.840, 97.557 178.777 C 98.413 180, 99.913 181, 100.890 181 C 102.560 181, 175.266 134.879, 179.182 131.336 C 180.182 130.431, 181 128.930, 181 128 C 181 127.070, 180.182 125.569, 179.182 124.664 C 175.266 121.121, 102.560 75, 100.890 75 C 99.913 75, 98.413 76, 97.557 77.223 M 0.402 128 C 0.402 136.525, 0.556 140.012, 0.743 135.750 C 0.931 131.488, 0.931 124.513, 0.743 120.250 C 0.556 115.987, 0.402 119.475, 0.402 128"
          stroke="none" fill="#040404" fill-rule="evenodd"/>
</svg>