<svg xmlns="http://www.w3.org/2000/svg" width="128" height="128" viewBox="0 0 128 128" version="1.1">
    <path d="" stroke="none" fill="#080404" fill-rule="evenodd"/>
    <path d="M 62.184 19.411 C 30.110 29.966, 2.970 39.162, 1.872 39.848 C 0.518 40.694, -0.024 41.947, 0.188 43.749 C 0.460 46.063, 3.511 48.163, 24 60.145 C 45.649 72.806, 51.074 75.308, 52.359 73.229 C 52.621 72.804, 54.997 70.905, 57.638 69.008 L 62.441 65.559 58.992 70.362 C 57.095 73.003, 55.196 75.379, 54.771 75.641 C 52.698 76.923, 55.200 82.340, 67.868 104 C 79.556 123.985, 81.990 127.545, 84.141 127.801 C 85.533 127.966, 87.201 127.462, 87.849 126.681 C 89.281 124.956, 128 6.909, 128 4.269 C 128 1.634, 126.033 -0.019, 123.050 0.110 C 121.647 0.171, 94.258 8.857, 62.184 19.411 M 12.723 79.775 C 5.903 86.648, 4.630 89.618, 7.487 91.989 C 9.962 94.043, 13.359 92.352, 19.324 86.099 C 25.429 79.699, 26.599 75.926, 23.066 74.035 C 22.002 73.466, 20.752 73, 20.289 73 C 19.826 73, 16.421 76.049, 12.723 79.775 M 23.656 97.844 C 10.534 110.988, 8.875 113.020, 9.168 115.594 C 9.443 118.001, 10.015 118.551, 12.500 118.794 C 15.179 119.057, 17.077 117.499, 30.250 104.219 C 38.362 96.041, 45 88.628, 45 87.746 C 45 85.646, 42.305 83, 40.166 83 C 39.236 83, 31.806 89.680, 23.656 97.844 M 41.901 108.676 C 35.648 114.641, 33.957 118.038, 36.011 120.513 C 38.483 123.491, 41.521 122.156, 48.336 115.097 C 52.001 111.301, 55 107.896, 55 107.531 C 55 107.167, 54.534 105.998, 53.965 104.934 C 52.074 101.401, 48.301 102.571, 41.901 108.676"
          stroke="none" fill="#040404" fill-rule="evenodd"/>
</svg>